HIERARCHY
ROOT Hips
{
	OFFSET 0.00000 0.00000 0.00000
	CHANNELS 6 Xposition Yposition Zposition Zrotation Yrotation Xrotation 
	JOINT LHipJoint
	{
		OFFSET 0 0 0
		CHANNELS 3 Zrotation Yrotation Xrotation
		JOINT LeftHip
		{
			OFFSET 1.27966 -1.91611 0.81506
			CHANNELS 3 Zrotation Yrotation Xrotation
			JOINT LeftKnee
			{
				OFFSET 2.49511 -6.85528 0.00000
				CHANNELS 3 Zrotation Yrotation Xrotation
				JOINT LeftAnkle
				{
					OFFSET 2.67286 -7.34045 0.00000
					CHANNELS 3 Zrotation Yrotation Xrotation
					JOINT LeftToe
					{
						OFFSET 0.22740 -0.62477 2.32102
						CHANNELS 3 Zrotation Yrotation Xrotation
						End Site
						{
							OFFSET 0.00000 -0.00000 1.20480
						}
					}
				}
			}
		}
	}
	JOINT RHipJoint
	{
		OFFSET 0 0 0
		CHANNELS 3 Zrotation Yrotation Xrotation
		JOINT RightHip
		{
			OFFSET -1.09666 -1.91611 0.81505
			CHANNELS 3 Zrotation Yrotation Xrotation
			JOINT RightKnee
			{
				OFFSET -2.51373 -6.90642 0.00000
				CHANNELS 3 Zrotation Yrotation Xrotation
				JOINT RightAnkle
				{
					OFFSET -2.70173 -7.42295 0.00000
					CHANNELS 3 Zrotation Yrotation Xrotation
					JOINT RightToe
					{
						OFFSET -0.22214 -0.61032 2.18267
						CHANNELS 3 Zrotation Yrotation Xrotation
						End Site
						{
							OFFSET -0.00000 -0.00000 1.13683
						}
					}
				}
			}
		}
	}
	JOINT lowerback
	{
		OFFSET 0 0 0
		CHANNELS 3 Zrotation Yrotation Xrotation
		JOINT Chest
		{
			OFFSET -0.00990 2.16804 -0.08389
			CHANNELS 3 Zrotation Yrotation Xrotation
			JOINT Chest2
			{
				OFFSET 0.06407 2.15456 0.07285
				CHANNELS 3 Zrotation Yrotation Xrotation
				JOINT lowerneck
				{
					OFFSET 0 0 0
					CHANNELS 3 Zrotation Yrotation Xrotation
					JOINT Neck
					{
						OFFSET -0.16931 1.61602 0.24462
						CHANNELS 3 Zrotation Yrotation Xrotation
						JOINT Head
						{
							OFFSET 0.21556 1.63376 -0.33896
							CHANNELS 3 Zrotation Yrotation Xrotation
							End Site
							{
								OFFSET 0.08444 1.69244 -0.14900
							}
						}
					}
				}
				JOINT LeftCollar
				{
					OFFSET 0 0 0
					CHANNELS 3 Zrotation Yrotation Xrotation
					JOINT LeftShoulder
					{
						OFFSET 2.89000 1.40150 -0.54392
CHANNELS 3 Zrotation Xrotation Yrotation
						JOINT LeftElbow
						{
OFFSET 0 -5.107550 0.000000
CHANNELS 3 Zrotation Xrotation Yrotation
							JOINT LeftWrist
							{
OFFSET 0 -3.362530 0.000000
CHANNELS 3 Zrotation Xrotation Yrotation
								JOINT lhand
								{
									OFFSET 0 0 0
CHANNELS 3 Zrotation Xrotation Yrotation
									JOINT LFingers
									{
OFFSET 0 -0.619090 0.000000
CHANNELS 3 Zrotation Xrotation Yrotation
										End Site
										{
OFFSET 0 -0.499120 0.000000
										}
									}
								}
								JOINT LThumb
								{
OFFSET 0 0.000000 0.000000
CHANNELS 3 Zrotation Xrotation Yrotation
									End Site
									{
OFFSET 0 -0.506750 0.506750
									}
								}
							}
						}
					}
				}
				JOINT RightCollar
				{
					OFFSET 0 0 0
					CHANNELS 3 Zrotation Yrotation Xrotation
					JOINT RightShoulder
					{
						OFFSET -2.65771 1.70968 -0.54312
CHANNELS 3 Zrotation Xrotation Yrotation
						JOINT RightElbow
						{
OFFSET 0 -5.273870 0.000000
CHANNELS 3 Zrotation Xrotation Yrotation
							JOINT RightWrist
							{
OFFSET 0 -3.401440 0.000000
CHANNELS 3 Zrotation Xrotation Yrotation
								JOINT rhand
								{
									OFFSET 0 0 0
CHANNELS 3 Zrotation Xrotation Yrotation
									JOINT RFingers
									{
OFFSET 0 -0.742820 0.000000
CHANNELS 3 Zrotation Xrotation Yrotation
										End Site
										{
OFFSET 0 -0.598880 0.000000
										}
									}
								}
								JOINT RThumb
								{
OFFSET 0 0.000000 0.000000
CHANNELS 3 Zrotation Xrotation Yrotation
									End Site
									{
OFFSET 0 -0.608030 0.608030
									}
								}
							}
						}
					}
				}
			}
		}
	}
}
MOTION
Frames: 5
Frame Time: 0.008333333333333333
0.843372 17.873458 1.181551 0.349811 -30.875430 1.085267 0.000000 0.000000 0.000000 -11.552696 -10.902881 0.015929 2.205954 9.282484 26.682925 -1.184230 -21.284349 -2.717494 0.122995 -2.149946 -5.925725 0.000000 0.000000 0.000000 17.698570 12.710073 -16.099727 -4.004896 -12.166906 36.325011 -0.348182 19.158462 -16.317169 -2.780925 10.331100 -30.056320 -1.860284 0.524369 11.537609 4.131800 0.617127 2.433281 5.303739 0.323750 -3.987848 -16.546201 -6.935635 -9.484165 16.668862 -9.153309 9.971107 7.304587 -4.111766 6.135445 0.000000 0.000000 0.000000 2.621318 34.882886 -33.524600 44.252871 -50.396785 21.661677 13.512672 43.596233 -26.814406 0.000000 0.000000 0.000000 -7.125000 0.000000 0.000000 -18.092242 56.517253 5.227724 0.000000 0.000000 0.000000 -21.594961 -3.998112 35.045563 -131.774975 -52.253822 -95.236382 -28.470852 43.063164 0.953738 0.000000 0.000000 0.000000 7.125000 0.000000 0.000000 -1.515752 31.062493 -0.516818
1.222732 17.923221 1.246950 1.448892 -46.965507 1.133155 0.000000 0.000000 0.000000 -13.698592 -6.762397 1.539672 1.958628 8.779306 25.107318 -1.489844 -22.913691 -1.273863 0.292831 -3.464311 -9.575822 0.000000 0.000000 0.000000 14.820324 8.522911 -20.718894 -4.006980 -12.169657 36.334851 -0.941994 9.267833 -17.535369 -1.340969 7.330026 -20.697730 -2.518254 0.488418 10.939204 4.082306 0.432742 3.441496 5.644209 0.171934 -2.587358 -11.320013 -0.918388 -11.344145 12.584870 -1.115997 12.160495 5.817636 -0.176995 5.644610 0.000000 0.000000 0.000000 8.831110 37.036307 -50.696026 39.714508 -47.899594 18.227243 6.503722 40.017750 -25.410581 0.000000 0.000000 0.000000 -7.125000 0.000000 0.000000 -24.153662 53.859753 5.508660 0.000000 0.000000 0.000000 -33.437142 -22.160494 28.228822 -135.506753 -50.517485 -98.152992 -21.124357 42.235783 4.214932 0.000000 0.000000 0.000000 7.125000 0.000000 0.000000 4.554579 34.469707 1.180068
1.395265 17.930727 1.210167 1.058469 -56.453675 2.735419 0.000000 0.000000 0.000000 -14.136651 -8.996370 -0.476435 2.651430 10.107785 29.326866 -1.712920 -24.293208 -0.936362 1.406593 -7.493821 -21.190581 0.000000 0.000000 0.000000 15.226984 9.034042 -24.449454 -3.922733 -12.056856 35.933512 -0.161340 8.086993 -8.534408 -0.301972 3.476096 -9.612718 -1.298429 1.503129 13.250531 4.858028 1.853127 4.429329 5.561017 0.836166 -2.966908 -7.668472 3.861279 -15.377031 8.412892 5.510272 14.794346 4.518626 2.971582 6.555516 0.000000 0.000000 0.000000 14.560928 41.488879 -66.384346 48.356339 -52.310209 24.867537 3.431093 37.625065 -25.344858 0.000000 0.000000 0.000000 -7.125000 0.000000 0.000000 -27.032823 53.249659 5.821835 0.000000 0.000000 0.000000 -55.406489 -37.624707 6.173273 -110.957079 -58.256578 -78.041313 -13.906728 33.621690 3.862041 0.000000 0.000000 0.000000 7.125000 0.000000 0.000000 10.403997 33.818757 2.893890
1.799082 17.874514 1.228632 8.822216 -65.187895 -1.170714 0.000000 0.000000 0.000000 -18.378524 -8.201589 -10.152092 4.467334 12.757188 38.466953 -1.420507 -21.707885 0.579584 1.751358 -8.327742 -23.714086 0.000000 0.000000 0.000000 9.775818 16.120469 -30.354177 -4.566585 -12.878416 38.915013 0.074202 9.810085 -5.529191 -0.001496 0.169428 -0.465441 -0.614390 2.501236 16.043137 4.419891 2.889332 8.499711 4.539286 1.169858 -0.209761 -4.523550 7.833773 -18.477039 -0.605622 11.714621 9.732953 1.668190 5.473144 5.696074 0.000000 0.000000 0.000000 12.746667 46.299329 -81.062357 40.982410 -48.638249 19.174373 9.271115 36.319622 -32.913607 0.000000 0.000000 0.000000 -7.125000 0.000000 0.000000 -27.240689 61.152688 11.227059 0.000000 0.000000 0.000000 -110.229951 -49.463545 -41.939977 -41.964330 -49.166657 -19.920995 -12.060134 25.650100 3.340840 0.000000 0.000000 0.000000 7.125000 0.000000 0.000000 11.818713 33.224429 3.471479
1.939435 17.749591 1.250566 14.509514 -66.525474 -5.189156 0.000000 0.000000 0.000000 -21.485570 -5.895395 -12.573798 4.678637 13.012396 39.414936 -1.112636 -21.578920 -4.308048 1.911882 -8.678642 -24.796057 0.000000 0.000000 0.000000 6.159526 19.313333 -33.191126 -5.128872 -13.527402 41.376301 -0.020283 9.243466 -6.839670 -0.052804 1.474663 -4.055981 -0.175620 2.897685 16.279297 5.214710 3.389094 9.173936 5.065650 1.374879 0.327137 -6.292369 8.372964 -17.675511 -3.230387 13.097590 8.548499 1.173716 5.931536 5.249522 0.000000 0.000000 0.000000 13.553959 48.775207 -82.779802 37.384598 -46.441293 16.518329 -1.691871 32.008345 -28.401942 0.000000 0.000000 0.000000 -7.125000 0.000000 0.000000 -33.991785 54.935915 9.069437 0.000000 0.000000 0.000000 -126.996735 -46.941428 -57.992461 -28.734532 -39.780892 -10.591469 -10.175362 24.461584 2.723586 0.000000 0.000000 0.000000 7.125000 0.000000 0.000000 13.224201 32.544493 4.129111
